<?xml version="1.0" encoding="utf-8"?>
<!-- Generator: Adobe Illustrator 22.1.0, SVG Export Plug-In . SVG Version: 6.00 Build 0)  -->
<svg version="1.1" id="Layer_1" xmlns="http://www.w3.org/2000/svg" xmlns:xlink="http://www.w3.org/1999/xlink" x="0px" y="0px"
	 viewBox="0 0 48 48" style="enable-background:new 0 0 48 48;" xml:space="preserve">
<style type="text/css">
	.st0{fill:#8C6239;}
	.st1{fill:#FEFEFE;}
	.st2{fill:#F6931F;}
</style>
<g>
	<path class="st0" d="M28.1,43.9c3.6-0.6,6.9-2,9.8-4.3c2.1-1.6,3.8-3.6,5.1-5.9c-1-1.4-2-2.8-3.1-4.2c-0.1,0.2-0.2,0.4-0.3,0.5
		c-0.7,1.8-2.1,2.6-4,2.8c-1.9,0.2-3.6-0.2-5-1.5c-0.4-0.3-0.7-0.8-1-1.2c-1.7-2.7-3.3-5.4-5-8.1c-0.2-0.4-0.5-0.7-0.8-1
		c-0.5-0.4-1-0.4-1.5-0.1c-0.3,0.2-0.7,0.6-0.9,0.9c-0.8,1-1.5,2.1-2.4,3.2c-1.4,1.9-4,2.1-5.9,0.7c-0.2-0.2-0.4-0.3-0.7-0.5
		c-0.1,0.2-0.3,0.3-0.4,0.4c-1.9,2.6-3.8,5.3-5.7,7.9c-0.1,0.2-0.2,0.3,0,0.5c3.3,5.1,7.8,8.3,13.7,9.6L28.1,43.9z"/>
	<path class="st1" d="M24.7,14C24.7,13.9,24.7,13.9,24.7,14c-1,0-2,0-3.1,0c-0.6,0-1,0.2-1.4,0.7c-1.8,2.6-3.7,5.2-5.5,7.8
		c-0.8,1.1-0.7,1.4,0.5,2.1c0.1,0,0.2,0.1,0.3,0.1c0.4,0.2,0.8,0.1,1.1-0.2c0.3-0.3,0.6-0.7,0.9-1.1c0.8-1,1.5-2,2.3-3
		c0.5-0.6,1.1-1.1,1.9-1.3c1.9-0.5,3.9,0.3,5,2c1.5,2.4,2.9,4.7,4.4,7.1c0.4,0.7,0.9,1.3,1.4,1.9c0.7,0.8,1.7,1.1,2.7,0.9
		c1.6-0.3,2.4-1.2,2.4-2.8c0-1-0.4-1.9-0.9-2.7c-2.6-3.6-5.2-7.2-7.7-10.8c-0.3-0.5-0.7-0.6-1.2-0.6C26.8,14,25.8,14,24.7,14z"/>
	<path class="st2" d="M19.3,4.7c0-0.9,0.7-1.6,1.7-1.5c0.9,0,1.5,0.7,1.5,1.7c0,0.9-0.7,1.5-1.6,1.5C20,6.3,19.3,5.6,19.3,4.7z"/>
	<path class="st2" d="M27.6,8.7C26.6,8.7,26,8,26,7.1c0-0.9,0.7-1.6,1.6-1.6c0.9,0,1.6,0.7,1.6,1.6C29.2,8,28.5,8.7,27.6,8.7z"/>
	<path class="st2" d="M23.3,7.7c0.9,0,1.6,0.7,1.6,1.6c0,0.9-0.7,1.6-1.6,1.6c-0.9,0-1.6-0.7-1.6-1.6C21.7,8.4,22.4,7.7,23.3,7.7z"
		/>
	<path class="st2" d="M24.7,14c1,0,2.1,0,3.1,0c0.5,0,0.9,0.2,1.2,0.6c2.6,3.6,5.1,7.2,7.7,10.8c0.6,0.8,0.9,1.7,0.9,2.7
		c0,1.6-0.8,2.6-2.4,2.8c-1.1,0.2-2-0.1-2.7-0.9c-0.5-0.6-1-1.2-1.4-1.9c-1.5-2.4-2.9-4.7-4.4-7.1c-1-1.7-3.1-2.5-5-2
		c-0.8,0.2-1.4,0.7-1.9,1.3c-0.8,1-1.5,2-2.3,3c-0.3,0.4-0.6,0.7-0.9,1.1c-0.3,0.3-0.7,0.4-1.1,0.2c-0.1,0-0.2-0.1-0.3-0.1
		c-1.2-0.6-1.3-1-0.5-2.1c1.8-2.6,3.7-5.2,5.5-7.8c0.4-0.5,0.8-0.7,1.4-0.7C22.7,14,23.7,13.9,24.7,14C24.7,13.9,24.7,13.9,24.7,14z
		"/>
</g>
</svg>
